<svg xmlns="http://www.w3.org/2000/svg" xml:space="preserve" style="fill-rule:evenodd;clip-rule:evenodd;stroke-linejoin:round;stroke-miterlimit:2" viewBox="0 0 32 32"><style>.b{fill:#0891b2}.g{fill:#4d7c0f}@media (prefers-color-scheme:dark){.b{fill:#0aaed7}.g{fill:#65a414}}</style><g><path d="M0 0h32v32H0z" style="fill:none"/><clipPath id="a"><path d="M0 0h32v32H0z"/></clipPath><g clip-path="url(#a)"><path d="M6031 1334.63a.99.99 0 0 1-1 1h-16a1 1 0 0 1-.71-.29c-.18-.19-.29-.44-.29-.71v-47c0-2.2-1.79-4-4-4s-4 1.8-4 4v47a.99.99 0 0 1-1 1h-16a1 1 0 0 1-.71-.29c-.18-.19-.29-.44-.29-.71v-47c0-11.67 10.33-22 22-22 12.15 0 22 9.86 22 22z" class="b" transform="matrix(.33333 0 0 .33333 -1987 -413.212)"/><path d="M5979 1334.63a.99.99 0 0 1-1 1h-16a1 1 0 0 1-.71-.29c-.18-.19-.29-.44-.29-.71v-47c0-26.51 21.49-48 48-48s48 21.49 48 48v47a.99.99 0 0 1-1 1h-16a1 1 0 0 1-.71-.29c-.18-.19-.29-.44-.29-.71v-47c0-16.56-13.43-30-30-30-15.91 0-30 14.09-30 30z" class="g" transform="matrix(.33333 0 0 .33333 -1987 -413.212)"/></g></g></svg>
